HIERARCHY
ROOT Pelvis
{
	OFFSET 0.000000 0.000000 0.000000
	CHANNELS 6 Xposition Yposition Zposition Xrotation Yrotation Zrotation
	JOINT LeftUpLeg_virtual
	{
		OFFSET 0.000000 0.000000 0.000000
		CHANNELS 3 Xrotation Yrotation Zrotation
		JOINT LeftUpLeg
		{
			OFFSET 8.479700 -4.795502 -0.379100
			CHANNELS 3 Xrotation Yrotation Zrotation
			JOINT LeftLeg
			{
				OFFSET 0.024144 -32.555107 0.112900
				CHANNELS 3 Xrotation Yrotation Zrotation
				JOINT LeftFoot
				{
					OFFSET -0.024144 -32.638630 -3.012600
					CHANNELS 3 Xrotation Yrotation Zrotation
					JOINT LeftToeBase
					{
						OFFSET 0.970200 -13.225400 11.864200
						CHANNELS 3 Xrotation Yrotation Zrotation
						End Site
						{
							OFFSET 0 0 0
						}
					}
				}
			}
		}
	}
	JOINT RightUpLeg_virtual
	{
		OFFSET 0.000000 0.000000 0.000000
		CHANNELS 3 Xrotation Yrotation Zrotation
		JOINT RightUpLeg
		{
			OFFSET -8.479700 -4.795502 -0.379100
			CHANNELS 3 Xrotation Yrotation Zrotation
			JOINT RightLeg
			{
				OFFSET -0.023144 -32.555092 0.112900
				CHANNELS 3 Xrotation Yrotation Zrotation
				JOINT RightFoot
				{
					OFFSET 0.023144 -32.638641 -3.012700
					CHANNELS 3 Xrotation Yrotation Zrotation
					JOINT RightToeBase
					{
						OFFSET -0.970200 -13.225400 11.864200
						CHANNELS 3 Xrotation Yrotation Zrotation
						End Site
						{
							OFFSET 0 0 0
						}
					}
				}
			}
		}
	}
	JOINT Hips_virtual
	{
		OFFSET 0.000000 0.000000 0.000000
		CHANNELS 3 Xrotation Yrotation Zrotation
		JOINT Hips
		{
			OFFSET -0.000000 -0.000000 -0.000000
			CHANNELS 3 Xrotation Yrotation Zrotation
			JOINT Spine
			{
				OFFSET 0.000000 7.722000 1.166200
				CHANNELS 3 Xrotation Yrotation Zrotation
				JOINT Spine1
				{
					OFFSET 0.000000 12.024101 0.248800
					CHANNELS 3 Xrotation Yrotation Zrotation
					JOINT Spine2
					{
						OFFSET 0.000000 11.502998 -0.491200
						CHANNELS 3 Xrotation Yrotation Zrotation
						JOINT Neck_virtual
						{
							OFFSET 0.000000 0.000000 0.000000
							CHANNELS 3 Xrotation Yrotation Zrotation
							JOINT Neck
							{
								OFFSET 0.000000 18.430702 -3.123100
								CHANNELS 3 Xrotation Yrotation Zrotation
								JOINT Head
								{
									OFFSET 0.000000 9.051102 1.034000
									CHANNELS 3 Xrotation Yrotation Zrotation
									End Site
									{
										OFFSET 0 0 0
									}
								}
							}
						}
						JOINT LeftShoulder_virtual
						{
							OFFSET 0.000000 0.000000 0.000000
							CHANNELS 3 Xrotation Yrotation Zrotation
							JOINT LeftShoulder
							{
								OFFSET 6.197800 13.665199 -4.064700
								CHANNELS 3 Xrotation Yrotation Zrotation
								JOINT LeftArm
								{
									OFFSET 7.778100 -0.187103 -1.709300
									CHANNELS 3 Xrotation Yrotation Zrotation
									JOINT LeftForeArm
									{
										OFFSET 22.049376 0.000000 0.000000
										CHANNELS 3 Xrotation Yrotation Zrotation
										JOINT LeftHand
										{
											OFFSET 23.009392 0.000000 0.000000
											CHANNELS 3 Xrotation Yrotation Zrotation
											End Site
											{
												OFFSET 0 0 0
											}
										}
									}
								}
							}
						}
						JOINT RightShoulder_virtual
						{
							OFFSET 0.000000 0.000000 0.000000
							CHANNELS 3 Xrotation Yrotation Zrotation
							JOINT RightShoulder
							{
								OFFSET -6.197800 13.665199 -4.064700
								CHANNELS 3 Xrotation Yrotation Zrotation
								JOINT RightArm
								{
									OFFSET -7.778100 -0.187103 -1.709300
									CHANNELS 3 Xrotation Yrotation Zrotation
									JOINT RightForeArm
									{
										OFFSET -22.049376 0.000000 0.000000
										CHANNELS 3 Xrotation Yrotation Zrotation
										JOINT RightHand
										{
											OFFSET -23.009392 0.000000 0.000000
											CHANNELS 3 Xrotation Yrotation Zrotation
											End Site
											{
												OFFSET 0 0 0
											}
										}
									}
								}
							}
						}
					}
				}
			}
		}
	}
}
MOTION
Frames: 4
Frame Time: 0.03333333
-0.169129 73.868301 0.175014 0.000000 0.000000 0.000000 3.016504 -58.257340 6.570147 -35.247902 10.179403 24.280028 43.157056 -7.473689 -9.787584 -9.604578 -2.815543 -8.045159 0.000000 0.000000 0.000000 3.016504 -58.257340 6.570147 -32.836821 -8.277347 -25.536223 48.053267 2.410488 -7.553257 -19.169874 2.844954 20.705800 0.000000 0.000000 0.000000 3.016504 -58.257340 6.570147 0.000000 -0.000004 0.000000 11.191595 0.111614 -2.787680 8.434582 0.027680 -5.592324 0.000000 0.000000 0.000000 8.457034 0.027889 -5.591862 -21.556285 25.063285 12.062621 0.000000 0.000000 0.000000 8.457034 0.027889 -5.591862 -6.221636 -11.503829 -4.023760 -23.061633 9.569262 -36.639812 0.046363 -43.170945 -0.010991 0.000000 0.000000 0.000000 8.457034 0.027889 -5.591862 -5.488237 10.658252 2.466469 -41.473885 -26.755593 30.079047 -155.044242 68.137093 156.691206 0.000000 0.000000 0.000000 
-0.442267 73.916718 0.226246 0.000000 0.000000 0.000000 4.774601 -58.863875 8.732492 -35.221868 10.460932 23.599446 42.772407 -6.635095 -9.587432 -9.769920 -2.614268 -8.534423 0.000000 0.000000 0.000000 4.774601 -58.863875 8.732492 -33.755444 -7.436841 -25.786891 48.215415 2.481024 -7.539738 -19.334107 2.928114 20.665294 0.000000 0.000000 0.000000 4.774601 -58.863875 8.732492 0.000000 0.000002 0.000000 10.572529 0.075835 -3.093514 7.278665 0.995593 -6.029104 0.000000 0.000000 0.000000 7.868304 0.668167 -5.886732 -19.835337 24.498196 8.157676 0.000000 0.000000 0.000000 7.868304 0.668167 -5.886732 -6.438874 -13.164614 -4.289222 -20.844400 7.515355 -36.011353 -0.375288 -40.249045 -0.284900 0.000000 0.000000 0.000000 7.868304 0.668167 -5.886732 -5.541687 9.386666 2.275657 -42.475516 -27.794007 27.164166 -157.196626 65.533739 159.109789 0.000000 0.000000 0.000000 
-1.047351 74.071327 0.369410 0.000000 0.000000 0.000000 6.516956 -60.089115 10.803069 -34.387219 10.775493 23.071836 42.129823 -5.432040 -9.242196 -10.247959 -2.135740 -9.446080 0.000000 0.000000 0.000000 6.516956 -60.089115 10.803069 -34.170497 -6.547711 -25.689620 48.014966 2.702237 -7.457417 -19.579528 3.181900 20.498608 0.000000 0.000000 0.000000 6.516956 -60.089115 10.803069 0.000000 -0.000001 0.000000 9.970916 0.042480 -3.384423 5.412857 1.778453 -6.941523 0.000000 0.000000 0.000000 6.233831 0.975655 -6.719544 -17.015541 23.940354 3.257988 0.000000 0.000000 0.000000 6.233831 0.975655 -6.719544 -6.702467 -14.957870 -4.571854 -18.021913 7.338825 -35.052558 -0.477870 -38.363311 -0.338802 0.000000 0.000000 0.000000 6.233831 0.975655 -6.719544 -5.596371 8.117653 2.079302 -42.075345 -29.071122 25.529890 -158.484267 63.364280 160.638522 0.000000 0.000000 0.000000 
-1.931314 74.309738 0.561882 0.000000 0.000000 0.000000 7.680549 -61.313433 12.173726 -32.899867 11.218415 22.802085 41.113333 -4.541644 -8.851843 -10.761511 -1.542556 -10.445284 0.000000 0.000000 0.000000 7.680549 -61.313433 12.173726 -33.659391 -5.822350 -25.276204 47.441446 2.620321 -7.332994 -19.975778 3.464926 20.401444 0.000000 0.000000 0.000000 7.680549 -61.313433 12.173726 0.000000 0.000000 0.000000 9.401650 0.010900 -3.651322 3.106747 1.642268 -8.093142 0.000000 0.000000 0.000000 4.027169 1.010937 -7.900988 -14.200324 23.558229 -1.824859 0.000000 0.000000 0.000000 4.027169 1.010937 -7.900988 -6.970880 -16.475465 -4.859277 -16.573497 10.147423 -34.139454 -0.206055 -37.784719 -0.168419 0.000000 0.000000 0.000000 4.027169 1.010937 -7.900988 -5.673095 6.670778 1.984886 -39.956525 -30.758510 25.815267 -160.383770 59.930388 162.908631 0.000000 0.000000 0.000000 
